<svg width="287" height="246" viewBox="0 0 287 246" fill="none" xmlns="http://www.w3.org/2000/svg">
<path d="M62.1843 144.992C62.1843 139.041 63.3873 131.904 55.7702 132.054C51.6931 132.133 48.6887 134.281 44.822 134.984C38.745 136.089 37.3647 120.33 36.0856 116.35C33.1268 107.145 24.256 115.805 18.3915 114.968C11.4782 113.98 18.6431 98.3394 14.4103 96.223" stroke="white" stroke-width="5" stroke-linecap="round" stroke-linejoin="round"/>
<path d="M134.952 23.1053C133.652 29.7655 130.864 47.3138 134.532 54.1006" stroke="#FF808A" stroke-width="5" stroke-linecap="round" stroke-linejoin="round"/>
<path d="M181.145 32.7525C174.775 39.8667 175.105 49.6216 171.378 57.7084" stroke="#FF808A" stroke-width="5" stroke-linecap="round" stroke-linejoin="round"/>
<path d="M212.885 52.7806C206.154 59.9549 198.153 69.7107 193.996 78.7313" stroke="#FF808A" stroke-width="5" stroke-linecap="round" stroke-linejoin="round"/>
<path d="M244.319 151.282C249.461 142.025 254.471 132.796 258.865 123.141C266.583 133.431 274.353 142.143 281.364 153.117C281.927 153.998 284.254 156.478 283.913 157.671C283.762 158.203 282.309 158.104 281.84 158.317C276.773 160.62 271.899 160.458 266.308 160.458C259.492 160.458 252.586 160.765 245.814 159.846C244.629 159.686 241.884 159.785 240.784 159.235C240.563 159.124 242.284 155.561 242.347 155.258C242.654 153.804 243.628 152.525 244.319 151.282Z" stroke="white" stroke-width="5" stroke-linecap="round" stroke-linejoin="round"/>
<path d="M3.39947 206.952C3.39947 214.996 3.39947 223.04 3.39947 231.083C3.39947 234.119 2.58437 238.535 3.70535 241.449C4.52936 243.592 9.15202 241.945 10.7406 241.857C15.2147 241.608 19.6884 241.413 24.1655 241.177C27.8736 240.982 31.4858 240.599 35.2112 240.599C36.2248 240.599 37.2584 240.659 38.27 240.599C39.5446 240.524 38.8818 235.339 38.8818 234.482C38.8818 225.186 38.9972 222.771 38.27 213.682C38.057 211.019 36.1288 202.67 36.1288 202.67C36.1288 202.67 25.9554 202.67 20.8687 202.67C16.3761 202.67 8.63116 201.221 4.623 203.894" stroke="#FF808A" stroke-width="5" stroke-linecap="round" stroke-linejoin="round"/>
</svg>
