<svg width="728" height="272" viewBox="0 0 728 272" fill="none" xmlns="http://www.w3.org/2000/svg">
<g opacity="0.3">
<rect width="6" height="6" fill="#AAAAAA"/>
<rect x="38" width="6" height="6" fill="#AAAAAA"/>
<rect x="76" width="6" height="6" fill="#AAAAAA"/>
<rect x="114" width="6" height="6" fill="#AAAAAA"/>
<rect x="152" width="6" height="6" fill="#AAAAAA"/>
<rect x="190" width="6" height="6" fill="#AAAAAA"/>
<rect x="228" width="6" height="6" fill="#AAAAAA"/>
<rect x="266" width="6" height="6" fill="#AAAAAA"/>
<rect x="304" width="6" height="6" fill="#AAAAAA"/>
<rect x="342" width="6" height="6" fill="#AAAAAA"/>
<rect x="380" width="6" height="6" fill="#AAAAAA"/>
<rect x="418" width="6" height="6" fill="#AAAAAA"/>
<rect x="456" width="6" height="6" fill="#AAAAAA"/>
<rect x="494" width="6" height="6" fill="#AAAAAA"/>
<rect x="532" width="6" height="6" fill="#AAAAAA"/>
<rect x="570" width="6" height="6" fill="#AAAAAA"/>
<rect x="608" width="6" height="6" fill="#AAAAAA"/>
<rect x="646" width="6" height="6" fill="#AAAAAA"/>
<rect x="684" width="6" height="6" fill="#AAAAAA"/>
<rect x="722" width="6" height="6" fill="#AAAAAA"/>
<rect y="38" width="6" height="6" fill="#AAAAAA"/>
<rect x="38" y="38" width="6" height="6" fill="#AAAAAA"/>
<rect x="76" y="38" width="6" height="6" fill="#AAAAAA"/>
<rect x="114" y="38" width="6" height="6" fill="#AAAAAA"/>
<rect x="152" y="38" width="6" height="6" fill="#AAAAAA"/>
<rect x="190" y="38" width="6" height="6" fill="#AAAAAA"/>
<rect x="228" y="38" width="6" height="6" fill="#AAAAAA"/>
<rect x="266" y="38" width="6" height="6" fill="#AAAAAA"/>
<rect x="304" y="38" width="6" height="6" fill="#AAAAAA"/>
<rect x="342" y="38" width="6" height="6" fill="#AAAAAA"/>
<rect x="380" y="38" width="6" height="6" fill="#AAAAAA"/>
<rect x="418" y="38" width="6" height="6" fill="#AAAAAA"/>
<rect x="456" y="38" width="6" height="6" fill="#AAAAAA"/>
<rect x="494" y="38" width="6" height="6" fill="#AAAAAA"/>
<rect x="532" y="38" width="6" height="6" fill="#AAAAAA"/>
<rect x="570" y="38" width="6" height="6" fill="#AAAAAA"/>
<rect x="608" y="38" width="6" height="6" fill="#AAAAAA"/>
<rect x="646" y="38" width="6" height="6" fill="#AAAAAA"/>
<rect x="684" y="38" width="6" height="6" fill="#AAAAAA"/>
<rect x="722" y="38" width="6" height="6" fill="#AAAAAA"/>
<rect y="76" width="6" height="6" fill="#AAAAAA"/>
<rect x="38" y="76" width="6" height="6" fill="#AAAAAA"/>
<rect x="76" y="76" width="6" height="6" fill="#AAAAAA"/>
<rect x="114" y="76" width="6" height="6" fill="#AAAAAA"/>
<rect x="152" y="76" width="6" height="6" fill="#AAAAAA"/>
<rect x="190" y="76" width="6" height="6" fill="#AAAAAA"/>
<rect x="228" y="76" width="6" height="6" fill="#AAAAAA"/>
<rect x="266" y="76" width="6" height="6" fill="#AAAAAA"/>
<rect x="304" y="76" width="6" height="6" fill="#AAAAAA"/>
<rect x="342" y="76" width="6" height="6" fill="#AAAAAA"/>
<rect x="380" y="76" width="6" height="6" fill="#AAAAAA"/>
<rect x="418" y="76" width="6" height="6" fill="#AAAAAA"/>
<rect x="456" y="76" width="6" height="6" fill="#AAAAAA"/>
<rect x="494" y="76" width="6" height="6" fill="#AAAAAA"/>
<rect x="532" y="76" width="6" height="6" fill="#AAAAAA"/>
<rect x="570" y="76" width="6" height="6" fill="#AAAAAA"/>
<rect x="608" y="76" width="6" height="6" fill="#AAAAAA"/>
<rect x="646" y="76" width="6" height="6" fill="#AAAAAA"/>
<rect x="684" y="76" width="6" height="6" fill="#AAAAAA"/>
<rect x="722" y="76" width="6" height="6" fill="#AAAAAA"/>
<rect y="114" width="6" height="6" fill="#AAAAAA"/>
<rect x="38" y="114" width="6" height="6" fill="#AAAAAA"/>
<rect x="76" y="114" width="6" height="6" fill="#AAAAAA"/>
<rect x="114" y="114" width="6" height="6" fill="#AAAAAA"/>
<rect x="152" y="114" width="6" height="6" fill="#AAAAAA"/>
<rect x="190" y="114" width="6" height="6" fill="#AAAAAA"/>
<rect x="228" y="114" width="6" height="6" fill="#AAAAAA"/>
<rect x="266" y="114" width="6" height="6" fill="#AAAAAA"/>
<rect x="304" y="114" width="6" height="6" fill="#AAAAAA"/>
<rect x="342" y="114" width="6" height="6" fill="#AAAAAA"/>
<rect x="380" y="114" width="6" height="6" fill="#AAAAAA"/>
<rect x="418" y="114" width="6" height="6" fill="#AAAAAA"/>
<rect x="456" y="114" width="6" height="6" fill="#AAAAAA"/>
<rect x="494" y="114" width="6" height="6" fill="#AAAAAA"/>
<rect x="532" y="114" width="6" height="6" fill="#AAAAAA"/>
<rect x="570" y="114" width="6" height="6" fill="#AAAAAA"/>
<rect x="608" y="114" width="6" height="6" fill="#AAAAAA"/>
<rect x="646" y="114" width="6" height="6" fill="#AAAAAA"/>
<rect x="684" y="114" width="6" height="6" fill="#AAAAAA"/>
<rect x="722" y="114" width="6" height="6" fill="#AAAAAA"/>
<rect y="152" width="6" height="6" fill="#AAAAAA"/>
<rect x="38" y="152" width="6" height="6" fill="#AAAAAA"/>
<rect x="76" y="152" width="6" height="6" fill="#AAAAAA"/>
<rect x="114" y="152" width="6" height="6" fill="#AAAAAA"/>
<rect x="152" y="152" width="6" height="6" fill="#AAAAAA"/>
<rect x="190" y="152" width="6" height="6" fill="#AAAAAA"/>
<rect x="228" y="152" width="6" height="6" fill="#AAAAAA"/>
<rect x="266" y="152" width="6" height="6" fill="#AAAAAA"/>
<rect x="304" y="152" width="6" height="6" fill="#AAAAAA"/>
<rect x="342" y="152" width="6" height="6" fill="#AAAAAA"/>
<rect x="380" y="152" width="6" height="6" fill="#AAAAAA"/>
<rect x="418" y="152" width="6" height="6" fill="#AAAAAA"/>
<rect x="456" y="152" width="6" height="6" fill="#AAAAAA"/>
<rect x="494" y="152" width="6" height="6" fill="#AAAAAA"/>
<rect x="532" y="152" width="6" height="6" fill="#AAAAAA"/>
<rect x="570" y="152" width="6" height="6" fill="#AAAAAA"/>
<rect x="608" y="152" width="6" height="6" fill="#AAAAAA"/>
<rect x="646" y="152" width="6" height="6" fill="#AAAAAA"/>
<rect x="684" y="152" width="6" height="6" fill="#AAAAAA"/>
<rect x="722" y="152" width="6" height="6" fill="#AAAAAA"/>
<rect y="190" width="6" height="6" fill="#AAAAAA"/>
<rect x="38" y="190" width="6" height="6" fill="#AAAAAA"/>
<rect x="76" y="190" width="6" height="6" fill="#AAAAAA"/>
<rect x="114" y="190" width="6" height="6" fill="#AAAAAA"/>
<rect x="152" y="190" width="6" height="6" fill="#AAAAAA"/>
<rect x="190" y="190" width="6" height="6" fill="#AAAAAA"/>
<rect x="228" y="190" width="6" height="6" fill="#AAAAAA"/>
<rect x="266" y="190" width="6" height="6" fill="#AAAAAA"/>
<rect x="304" y="190" width="6" height="6" fill="#AAAAAA"/>
<rect x="342" y="190" width="6" height="6" fill="#AAAAAA"/>
<rect x="380" y="190" width="6" height="6" fill="#AAAAAA"/>
<rect x="418" y="190" width="6" height="6" fill="#AAAAAA"/>
<rect x="456" y="190" width="6" height="6" fill="#AAAAAA"/>
<rect x="494" y="190" width="6" height="6" fill="#AAAAAA"/>
<rect x="532" y="190" width="6" height="6" fill="#AAAAAA"/>
<rect x="570" y="190" width="6" height="6" fill="#AAAAAA"/>
<rect x="608" y="190" width="6" height="6" fill="#AAAAAA"/>
<rect x="646" y="190" width="6" height="6" fill="#AAAAAA"/>
<rect x="684" y="190" width="6" height="6" fill="#AAAAAA"/>
<rect x="722" y="190" width="6" height="6" fill="#AAAAAA"/>
<rect y="228" width="6" height="6" fill="#AAAAAA"/>
<rect x="38" y="228" width="6" height="6" fill="#AAAAAA"/>
<rect x="76" y="228" width="6" height="6" fill="#AAAAAA"/>
<rect x="114" y="228" width="6" height="6" fill="#AAAAAA"/>
<rect x="152" y="228" width="6" height="6" fill="#AAAAAA"/>
<rect x="190" y="228" width="6" height="6" fill="#AAAAAA"/>
<rect x="228" y="228" width="6" height="6" fill="#AAAAAA"/>
<rect x="266" y="228" width="6" height="6" fill="#AAAAAA"/>
<rect x="304" y="228" width="6" height="6" fill="#AAAAAA"/>
<rect x="342" y="228" width="6" height="6" fill="#AAAAAA"/>
<rect x="380" y="228" width="6" height="6" fill="#AAAAAA"/>
<rect x="418" y="228" width="6" height="6" fill="#AAAAAA"/>
<rect x="456" y="228" width="6" height="6" fill="#AAAAAA"/>
<rect x="494" y="228" width="6" height="6" fill="#AAAAAA"/>
<rect x="532" y="228" width="6" height="6" fill="#AAAAAA"/>
<rect x="570" y="228" width="6" height="6" fill="#AAAAAA"/>
<rect x="608" y="228" width="6" height="6" fill="#AAAAAA"/>
<rect x="646" y="228" width="6" height="6" fill="#AAAAAA"/>
<rect x="684" y="228" width="6" height="6" fill="#AAAAAA"/>
<rect x="722" y="228" width="6" height="6" fill="#AAAAAA"/>
<rect y="266" width="6" height="6" fill="#AAAAAA"/>
<rect x="38" y="266" width="6" height="6" fill="#AAAAAA"/>
<rect x="76" y="266" width="6" height="6" fill="#AAAAAA"/>
<rect x="114" y="266" width="6" height="6" fill="#AAAAAA"/>
<rect x="152" y="266" width="6" height="6" fill="#AAAAAA"/>
<rect x="190" y="266" width="6" height="6" fill="#AAAAAA"/>
<rect x="228" y="266" width="6" height="6" fill="#AAAAAA"/>
<rect x="266" y="266" width="6" height="6" fill="#AAAAAA"/>
<rect x="304" y="266" width="6" height="6" fill="#AAAAAA"/>
<rect x="342" y="266" width="6" height="6" fill="#AAAAAA"/>
<rect x="380" y="266" width="6" height="6" fill="#AAAAAA"/>
<rect x="418" y="266" width="6" height="6" fill="#AAAAAA"/>
<rect x="456" y="266" width="6" height="6" fill="#AAAAAA"/>
<rect x="494" y="266" width="6" height="6" fill="#AAAAAA"/>
<rect x="532" y="266" width="6" height="6" fill="#AAAAAA"/>
<rect x="570" y="266" width="6" height="6" fill="#AAAAAA"/>
<rect x="608" y="266" width="6" height="6" fill="#AAAAAA"/>
<rect x="646" y="266" width="6" height="6" fill="#AAAAAA"/>
<rect x="684" y="266" width="6" height="6" fill="#AAAAAA"/>
<rect x="722" y="266" width="6" height="6" fill="#AAAAAA"/>
</g>
</svg>
