<svg width="64" height="64" viewBox="0 0 64 64" fill="none" xmlns="http://www.w3.org/2000/svg">
<path d="M14.2862 40.805V16.6744L15.5097 13.6155C19.5179 10.9434 27.2629 12.392 31.7554 12.392H47.0156C47.0156 12.392 48.9437 20.7405 49.1567 23.4037C49.8839 32.4934 49.7685 34.908 49.7685 44.2037C49.7685 45.0611 50.4313 50.2464 49.1567 50.3214C48.1451 50.3809 47.1115 50.3214 46.0979 50.3214C42.3725 50.3214 38.7604 50.704 35.0522 50.8991C30.5751 51.1348 26.1014 51.3303 21.6274 51.5789C20.0387 51.6671 15.4161 53.3135 14.5921 51.171C13.4711 48.2565 14.2862 43.8411 14.2862 40.805Z" stroke="#FF808A" stroke-width="5" stroke-linecap="round" stroke-linejoin="round"/>
</svg>
