<svg width="32" height="32" viewBox="0 0 32 32" fill="none" xmlns="http://www.w3.org/2000/svg">
<path fill-rule="evenodd" clip-rule="evenodd" d="M29 7.5012C28.0435 7.92552 27.0153 8.2123 25.9364 8.34113C27.0375 7.68099 27.8834 6.63566 28.2817 5.39C27.251 6.00139 26.1094 6.44521 24.8943 6.68441C23.9214 5.64766 22.5351 5 21.0008 5C18.055 5 15.6665 7.38823 15.6665 10.334C15.6665 10.7521 15.7137 11.1593 15.8047 11.5497C11.3715 11.3272 7.44093 9.20355 4.81012 5.9763C4.35096 6.7641 4.08784 7.68047 4.08784 8.65807C4.08784 10.5087 5.02956 12.1414 6.46086 13.098C5.58648 13.0703 4.76397 12.8303 4.04481 12.4308C4.04429 12.453 4.04429 12.4753 4.04429 12.4979C4.04429 15.0823 5.88301 17.2382 8.32324 17.7283C7.87565 17.8502 7.4044 17.9155 6.91794 17.9155C6.57422 17.9155 6.23999 17.882 5.91434 17.8197C6.59307 19.9388 8.56296 21.4811 10.8972 21.524C9.07165 22.9548 6.77169 23.8076 4.27244 23.8076C3.84188 23.8076 3.4173 23.7823 3 23.733C5.36067 25.2465 8.16451 26.1297 11.1769 26.1297C20.9884 26.1297 26.3538 18.0016 26.3538 10.9526C26.3538 10.7213 26.3485 10.4913 26.3382 10.2625C27.3806 9.51035 28.2849 8.57097 29 7.5012Z" fill="white"/>
</svg>
