<svg width="32" height="32" viewBox="0 0 32 32" fill="none" xmlns="http://www.w3.org/2000/svg">
<path d="M26.2235 4C27.2025 4 28 4.77466 28 5.72981V26.2678C28 27.2238 27.2025 27.9997 26.2235 27.9997H5.77148C4.79416 27.9997 4 27.2238 4 26.2678V5.72981C4 4.77466 4.79416 4 5.77148 4H26.2235ZM20.1806 12.7125C18.4488 12.7125 17.2876 13.662 16.8127 14.5623H16.7653V12.9975H13.3505V24.4509H16.9077L16.9078 18.7368C16.9139 17.26 17.2112 15.844 19.0438 15.844C20.8691 15.844 20.8934 17.5523 20.8934 18.8811V24.4509H24.4507V18.1685C24.4507 15.0847 23.7852 12.7125 20.1806 12.7125ZM11.1181 12.9975H7.55828V24.4509H11.1181V12.9975ZM9.33893 7.30412C8.19794 7.30412 7.27445 8.22894 7.27445 9.36742C7.27445 10.5067 8.19794 11.4319 9.33893 11.4319C10.4769 11.4319 11.4017 10.5067 11.4017 9.36742C11.4017 8.22894 10.4769 7.30412 9.33893 7.30412Z" fill="white"/>
</svg>
