<svg width="32" height="32" viewBox="0 0 32 32" fill="none" xmlns="http://www.w3.org/2000/svg">
<path fill-rule="evenodd" clip-rule="evenodd" d="M15.9999 6.16543C19.203 6.16543 19.5824 6.17762 20.8473 6.23533C22.0169 6.28872 22.6521 6.48414 23.0749 6.64838C23.6348 6.866 24.0345 7.126 24.4542 7.54576C24.874 7.96552 25.134 8.36519 25.3516 8.9251C25.5159 9.34786 25.7113 9.98305 25.7647 11.1526C25.8224 12.4176 25.8346 12.797 25.8346 16.0001C25.8346 19.2033 25.8224 19.5827 25.7647 20.8476C25.7113 22.0172 25.5159 22.6524 25.3516 23.0752C25.134 23.6351 24.874 24.0348 24.4542 24.4545C24.0345 24.8743 23.6348 25.1343 23.0749 25.3519C22.6521 25.5161 22.0169 25.7116 20.8473 25.765C19.5826 25.8227 19.2032 25.8349 15.9999 25.8349C12.7965 25.8349 12.4171 25.8227 11.1524 25.765C9.98276 25.7116 9.34757 25.5161 8.92485 25.3519C8.3649 25.1343 7.96523 24.8743 7.54547 24.4545C7.12571 24.0348 6.86571 23.6351 6.64814 23.0752C6.48385 22.6524 6.28842 22.0172 6.23504 20.8477C6.17733 19.5827 6.16514 19.2033 6.16514 16.0001C6.16514 12.797 6.17733 12.4176 6.23504 11.1527C6.28842 9.98305 6.48385 9.34786 6.64814 8.9251C6.86571 8.36519 7.12571 7.96552 7.54547 7.54576C7.96523 7.126 8.3649 6.866 8.92485 6.64838C9.34757 6.48414 9.98276 6.28872 11.1523 6.23533C12.4173 6.17762 12.7967 6.16543 15.9999 6.16543ZM15.9999 4.00391C12.7419 4.00391 12.3334 4.01772 11.0539 4.0761C9.77695 4.13438 8.90495 4.33714 8.14185 4.63372C7.353 4.94029 6.684 5.35048 6.01709 6.01738C5.35019 6.68429 4.94 7.35329 4.63342 8.14214C4.33685 8.90524 4.13409 9.77724 4.0758 11.0541C4.01742 12.3336 4.00366 12.7421 4.00366 16.0001C4.00366 19.2581 4.01742 19.6667 4.0758 20.9461C4.13409 22.223 4.33685 23.095 4.63342 23.8581C4.94 24.647 5.35019 25.316 6.01709 25.9829C6.684 26.6498 7.353 27.06 8.14185 27.3666C8.90495 27.6631 9.77695 27.8659 11.0539 27.9242C12.3334 27.9826 12.7419 27.9963 15.9999 27.9963C19.2579 27.9963 19.6664 27.9826 20.9459 27.9242C22.2228 27.8659 23.0948 27.6631 23.8579 27.3666C24.6467 27.06 25.3157 26.6498 25.9826 25.9829C26.6495 25.316 27.0597 24.647 27.3663 23.8581C27.6629 23.095 27.8656 22.223 27.9239 20.9461C27.9823 19.6667 27.9961 19.2581 27.9961 16.0001C27.9961 12.7421 27.9823 12.3336 27.9239 11.0541C27.8656 9.77724 27.6629 8.90524 27.3663 8.14214C27.0597 7.35329 26.6495 6.68429 25.9826 6.01738C25.3157 5.35048 24.6467 4.94029 23.8579 4.63372C23.0948 4.33714 22.2228 4.13438 20.9459 4.0761C19.6664 4.01772 19.2579 4.00391 15.9999 4.00391Z" fill="white"/>
<path fill-rule="evenodd" clip-rule="evenodd" d="M16.0001 9.83984C12.5979 9.83984 9.83984 12.5979 9.83984 16.0001C9.83984 19.4023 12.5979 22.1603 16.0001 22.1603C19.4023 22.1603 22.1603 19.4023 22.1603 16.0001C22.1603 12.5979 19.4023 9.83984 16.0001 9.83984ZM16.0001 19.9988C13.7917 19.9988 12.0013 18.2085 12.0013 16.0001C12.0013 13.7917 13.7917 12.0013 16.0001 12.0013C18.2085 12.0013 19.9988 13.7917 19.9988 16.0001C19.9988 18.2085 18.2085 19.9988 16.0001 19.9988Z" fill="white"/>
<path fill-rule="evenodd" clip-rule="evenodd" d="M23.8439 9.59626C23.8439 10.3913 23.1995 11.0358 22.4044 11.0358C21.6094 11.0358 20.9648 10.3913 20.9648 9.59626C20.9648 8.80121 21.6094 8.15674 22.4044 8.15674C23.1995 8.15674 23.8439 8.80121 23.8439 9.59626Z" fill="white"/>
</svg>
