<svg width="66" height="28" viewBox="0 0 66 28" fill="none" xmlns="http://www.w3.org/2000/svg">
<path d="M4.564 20.748H6.916V18.312H4.592C3.304 18.312 2.772 17.752 2.772 16.436V8.54H7.084V6.132H2.772V1.96H0V6.132V8.54V16.464C0 19.488 1.82 20.748 4.564 20.748Z" fill="white"/>
<path d="M15.976 21.112C20.428 21.112 23.676 17.808 23.676 13.44C23.676 9.072 20.456 5.768 16.004 5.768C11.58 5.768 8.33197 9.044 8.33197 13.44C8.33197 17.836 11.552 21.112 15.976 21.112ZM15.976 18.508C13.176 18.508 11.16 16.408 11.16 13.44C11.16 10.556 13.148 8.344 15.976 8.344C18.832 8.344 20.848 10.528 20.848 13.44C20.848 16.38 18.832 18.508 15.976 18.508Z" fill="white"/>
<path d="M25.8234 27.188H28.5954V18.648H28.8194C29.3514 19.544 30.7514 21.112 33.5794 21.112C37.5834 21.112 40.4394 17.864 40.4394 13.412C40.4394 8.988 37.4154 5.768 33.3834 5.768C30.5274 5.768 29.2394 7.504 28.7634 8.148H28.5394V6.132H25.8234V27.188ZM33.0754 18.536C30.5834 18.536 28.5394 16.66 28.5394 13.412C28.5394 10.668 30.2754 8.344 33.0194 8.344C35.5954 8.344 37.5834 10.332 37.5834 13.412C37.5834 16.436 35.6794 18.536 33.0754 18.536Z" fill="white"/>
<path d="M45.827 3.696C46.919 3.696 47.703 2.884 47.703 1.82C47.703 0.812001 46.919 0 45.827 0C44.763 0 43.979 0.812001 43.979 1.82C43.979 2.884 44.763 3.696 45.827 3.696ZM44.427 20.748H47.199V6.132H41.767V8.54H44.427V20.748Z" fill="white"/>
<path d="M56.7967 21.112C59.7087 21.112 60.9407 19.432 61.4447 18.732H61.6407C61.6407 19.992 62.5647 20.748 63.7687 20.748H65.7567V18.228H65.0847C64.6367 18.228 64.3567 18.004 64.3567 17.556V6.132H61.5847V8.232H61.3607C60.8007 7.448 59.4567 5.768 56.6287 5.768C52.5967 5.768 49.7687 9.044 49.7687 13.44C49.7687 17.892 52.7367 21.112 56.7967 21.112ZM57.1327 18.564C54.5847 18.564 52.5687 16.548 52.5687 13.468C52.5687 10.472 54.5007 8.344 57.1047 8.344C59.5967 8.344 61.6687 10.22 61.6687 13.468C61.6687 16.24 59.9047 18.564 57.1327 18.564Z" fill="white"/>
</svg>
