<svg width="3025" height="2437" viewBox="0 0 3025 2437" fill="none" xmlns="http://www.w3.org/2000/svg">
<g opacity="0.3">
<path opacity="0.4" d="M702.024 2.00011C234.184 2.00013 -98.0162 391.229 29.4402 839.973C204.693 1349.79 260.985 1220.37 773.693 1314.09C1286.4 1407.81 850.874 2435.2 1691.5 2435.2C2863.11 2435.2 3530.18 839.973 2548.87 531.246C1567.56 222.519 1169.86 2.00009 702.024 2.00011Z" stroke="white" stroke-width="3"/>
<path opacity="0.6" d="M1098.96 294.19C310.6 189.442 222.392 667.235 310.6 977.799C431.885 1330.63 751.638 928.183 1060.37 1099.08C1369.09 1269.99 1005.24 2152.06 1788.08 2096.93C2570.92 2041.8 3006.45 977.799 2405.53 823.436C1804.62 669.072 1887.31 398.937 1098.96 294.19Z" stroke="white" stroke-width="3"/>
<path opacity="0.8" d="M1185.08 454.065C600.144 395.047 405.031 609.862 470.478 784.844C560.469 983.64 956.016 869.22 1185.08 965.512C1414.15 1061.8 1223.77 1912.99 1804.62 1881.93C2385.47 1850.86 2619.85 1052.49 2173.99 965.512C1728.13 878.539 1770.02 513.083 1185.08 454.065Z" stroke="white" stroke-width="3"/>
<path d="M2014.12 1115.62C1727.72 1059.8 1899.2 905.418 1523.46 867.536C1300.59 845.066 1378.93 1108.5 1413.2 1236.84C1471.42 1454.85 1572.29 1614 1843.22 1622.8C2114.14 1631.6 2300.52 1171.45 2014.12 1115.62Z" stroke="white" stroke-width="3"/>
<path d="M1093.45 564.32C811.181 564.32 558.686 613.941 646.894 713.17C735.101 812.399 933.569 784.839 1093.45 828.943C1221.35 864.226 1337.85 766.462 1380.12 713.17C1429.54 650.865 1375.71 564.32 1093.45 564.32Z" stroke="white" stroke-width="3"/>
</g>
</svg>
