<svg width="72" height="72" viewBox="0 0 72 72" fill="none" xmlns="http://www.w3.org/2000/svg">
<path fill-rule="evenodd" clip-rule="evenodd" d="M39.0597 7.00361C37.9361 6.89703 37 7.80827 37 8.93689V39.2645C37 39.6526 37.1129 40.0323 37.325 40.3573L52.6265 63.8104C53.2344 64.742 54.4899 65.0035 55.3748 64.3293C63.0478 58.4836 68 49.2498 68 38.8592C68 22.2181 55.2975 8.54389 39.0597 7.00361Z" fill="#FF808A"/>
<path d="M52.6265 63.8104L51.789 64.3568L52.6265 63.8104ZM55.3748 64.3293L54.7688 63.5339L55.3748 64.3293ZM38 39.2645V8.93689H36V39.2645H38ZM53.464 63.264L38.1625 39.8109L36.4875 40.9037L51.789 64.3568L53.464 63.264ZM67 38.8592C67 48.9245 62.2042 57.8692 54.7688 63.5339L55.9808 65.1248C63.8913 59.0981 69 49.5751 69 38.8592H67ZM38.9652 7.99914C54.6946 9.49119 67 22.7388 67 38.8592H69C69 21.6975 55.9004 7.59659 39.1541 6.00807L38.9652 7.99914ZM51.789 64.3568C52.6909 65.7392 54.6004 66.1765 55.9808 65.1248L54.7688 63.5339C54.3795 63.8305 53.7778 63.7449 53.464 63.264L51.789 64.3568ZM38 8.93689C38 8.35506 38.4704 7.9522 38.9652 7.99914L39.1541 6.00807C37.4018 5.84185 36 7.26149 36 8.93689H38ZM36 39.2645C36 39.8466 36.1694 40.4162 36.4875 40.9037L38.1625 39.8109C38.0565 39.6484 38 39.4585 38 39.2645H36Z" fill="black"/>
<path fill-rule="evenodd" clip-rule="evenodd" d="M53.7304 65.5023C48.655 68.8866 42.5579 70.8593 36 70.8593C18.3269 70.8593 4 56.5324 4 38.8593C4 33.5239 5.30571 28.4936 7.61501 24.0703L37 39.8593L53.7304 65.5023Z" fill="white"/>
<path d="M53.7304 65.5023L54.2851 66.3343L55.1088 65.7851L54.5679 64.9559L53.7304 65.5023ZM7.61501 24.0703L8.08833 23.1894L7.19689 22.7104L6.72855 23.6075L7.61501 24.0703ZM37 39.8593L37.8375 39.3129L37.6981 39.0992L37.4733 38.9784L37 39.8593ZM53.1756 64.6703C48.2594 67.9485 42.3544 69.8593 36 69.8593V71.8593C42.7614 71.8593 49.0506 69.8247 54.2851 66.3343L53.1756 64.6703ZM36 69.8593C18.8792 69.8593 5 55.9801 5 38.8593H3C3 57.0846 17.7746 71.8593 36 71.8593V69.8593ZM5 38.8593C5 33.6889 6.26498 28.8169 8.50147 24.5331L6.72855 23.6075C4.34644 28.1702 3 33.359 3 38.8593H5ZM37.4733 38.9784L8.08833 23.1894L7.14169 24.9512L36.5267 40.7402L37.4733 38.9784ZM54.5679 64.9559L37.8375 39.3129L36.1625 40.4057L52.8928 66.0487L54.5679 64.9559Z" fill="black"/>
<path fill-rule="evenodd" clip-rule="evenodd" d="M33 2.00295C33 0.463349 31.3333 -0.498901 30 0.2709L6 14.1273C4.66667 14.8971 4.66667 16.8216 6 17.5914L30 31.4478C31.3333 32.2176 33 31.2554 33 29.7158L33 2.00295Z" fill="black"/>
</svg>
