<svg width="281" height="164" viewBox="0 0 281 164" fill="none" xmlns="http://www.w3.org/2000/svg">
<path d="M226.582 81.9362C226.582 75.9786 225.377 68.8352 233.002 68.9847C237.083 69.0647 240.09 71.2144 243.961 71.9181C250.044 73.0241 251.426 57.2491 252.706 53.2657C255.668 44.0517 264.547 52.7206 270.417 51.882C277.338 50.8934 270.166 35.2374 274.403 33.119" stroke="white" stroke-width="5" stroke-linecap="round" stroke-linejoin="round"/>
<path d="M22.333 129.936C22.4687 135.907 24.7761 141.572 27.8678 146.43C30.1884 150.077 31.4413 158.899 35.2845 160.821" stroke="white" stroke-width="5" stroke-linecap="round" stroke-linejoin="round"/>
<path d="M3.40234 155.838C17.7471 150.1 33.6856 145.678 47.2382 138.902" stroke="white" stroke-width="5" stroke-linecap="round" stroke-linejoin="round"/>
<path d="M262.447 106.844C256.898 109.782 249.495 114.466 249.495 121.346C249.495 127.146 250.582 127.201 253.259 131.751C255.516 135.588 265.95 139.266 269.919 136.179C274.088 132.936 278.387 126.546 278.387 121.29C278.387 115.792 271.618 106.844 265.435 106.844" stroke="#FF808A" stroke-width="5" stroke-linecap="round" stroke-linejoin="round"/>
<path d="M89.1372 32.3168C91.7993 38.5661 99.3427 54.6731 106.193 58.2372" stroke="#FF808A" stroke-width="5" stroke-linecap="round" stroke-linejoin="round"/>
<path d="M131.902 15.0845C130.618 24.5567 136.369 32.4549 137.822 41.2484" stroke="#FF808A" stroke-width="5" stroke-linecap="round" stroke-linejoin="round"/>
<path d="M170.381 13.1469C168.832 22.8716 167.68 35.4485 169.301 45.2574" stroke="#FF808A" stroke-width="5" stroke-linecap="round" stroke-linejoin="round"/>
</svg>
